{"title":"Alpha &amp; Omega 2010 CAM XVID - IMAGiNE","uid":5865561,"size":1511922616,"categoryP":"video","categoryS":"movies","magnet":"?xt=urn:btih:13d77803b58f22165ffde0208328162fb1847090&amp;dn=Alpha+%26+Omega+2010+CAM+XVID+-+IMAGiNE&amp;tr=udp%3A%2F%2Ftracker.openbittorrent.com%3A80&amp;tr=udp%3A%2F%2Fopen.demonii.com%3A1337&amp;tr=udp%3A%2F%2Ftracker.coppersurfer.tk%3A6969&amp;tr=udp%3A%2F%2Fexodus.desync.com%3A6969","seeders":0,"leechers":0,"uploader":"IwannaFan2","files":3,"time":1286154811,"description":"Filename:\nAlpha &amp; Omega 2010 CAM XVID - IMAGiNE\n &lt;a href=&quot;\nhttp://www.imdb.com/title/tt1213012/&quot; rel=&quot;nofollow&quot; target=&quot;_NEW&quot;&gt;\nhttp://www.imdb.com/title/tt1213012/&lt;/a&gt;\n\nDETAILS:\n\nVideo\nID                               : 0\nFormat                           : MPEG-4 Visual\nFormat profile                   : Advanced Simple@L5\nFormat settings, BVOP            : Yes\nFormat settings, QPel            : No\nFormat settings, GMC             : No warppoints\nFormat settings, Matrix          : Default (MPEG)\nMuxing mode                      : Packed bitstream\nCodec ID                         : XVID\nCodec ID/Hint                    : XviD\nDuration                         : 1h 18mn\nBit rate                         : 2 361 Kbps\nWidth                            : 720 pixels\nHeight                           : 384 pixels\nDisplay aspect ratio             : 1.875\nFrame rate                       : 23.976 fps\nResolution                       : 24 bits\nColorimetry                      : 4:2:0\nScan type                        : Progressive\nBits/(Pixel*Frame)               : 0.356\nStream size                      : 1.30 GiB (94%)\nWriting library                  : XviD 1.2.1 (UTC 2008-12-04)\n\nAudio\nID                               : 1\nFormat                           : MPEG Audio\nFormat version                   : Version 1\nFormat profile                   : Layer 3\nCodec ID                         : 55\nCodec ID/Hint                    : MP3\nDuration                         : 1h 18mn\nBit rate mode                    : Constant\nBit rate                         : 128 Kbps\nChannel(s)                       : 2 channels\nSampling rate                    : 44.1 KHz\nResolution                       : 16 bits\nStream size                      : 72.3 MiB (5%)\nAlignment                        : Split accross interleaves\nInterleave, duration             : 42 ms (1.00 video frame)\nInterleave, preload duration     : 500 ms\n\n\nSOURCES:\n\nVIDEO:Alpha &amp; Omega 2010 VOBS Anton studios .................Thanks MrFreestyle\nAUDIO:Alpha &amp; Omega Audio ....................Thanks LKRG\n\nNOTES:\n\nIMAGiNE bringing you another release..........Alpha &amp; Omega\n\nWell here's our go at the anton studio video muxed with the only cam audio out atm.\nThe video was pretty good but had some colour issues,strong on the colour,lots of glares and some\ncamera movement.\nThe audio....well what can we say Nothing special,but it's all thats out for the time being.\nFor the video we wrote a script to lower the chroma,increased the sharpness,make it brighter and also a rgbeq filter to\ncorrect the colours.\nOh also due to the camera movement we decided to crop to the lowest black border so you lose none of the video....so there will\nbe borders in some parts and different sizes.Also now and again there's some on the right and left,where the camera moves.\nOnce done we dropped it into vdub and used a few more filters to try and reduce the glares...\nFor the audio we used LKRG's synced audio ....so yes it still contains spanish audio for them missing scenes ....sorry folks.\n\nAnyway enjoy.\n\n\n","torrent":{"xt":"urn:btih:13d77803b58f22165ffde0208328162fb1847090","amp;dn":"Alpha+%26+Omega+2010+CAM+XVID+-+IMAGiNE","amp;tr":["udp%3A%2F%2Ftracker.openbittorrent.com%3A80","udp%3A%2F%2Fopen.demonii.com%3A1337","udp%3A%2F%2Ftracker.coppersurfer.tk%3A6969","udp%3A%2F%2Fexodus.desync.com%3A6969"],"infoHash":"13d77803b58f22165ffde0208328162fb1847090","infoHashBuffer":{"type":"Buffer","data":[19,215,120,3,181,143,34,22,95,253,224,32,131,40,22,47,177,132,112,144]},"announce":[],"urlList":[]}}